<?xml version="1.0" encoding="utf-8"?>
<svg version="1.1" id="coverfox.com_x5F_logo" xmlns="http://www.w3.org/2000/svg" xmlns:xlink="http://www.w3.org/1999/xlink"
	 x="0px" y="0px" viewBox="0 0 151 31" width="151" height="31" style="enable-background:new 0 0 151 31;" xml:space="preserve">
<style type="text/css">
	.st0{fill:#FC5846;}
	.st1{fill:#222222;}
</style>
<polygon class="st0" points="144.3,19.2 143.5,18.1 144.3,17.1 149.9,9.1 144,9.1 141.4,13 140.7,14 137.3,9.1 131.2,9.1
	137.5,18.2 130.6,28.3 136.5,28.3 140.6,22.4 141.4,23.4 144.6,28.3 150.7,28.3 "/>
<path id="tail_3_" class="st0" d="M119.2,27.6c-1.3-0.2-4.3-0.5-6.1,0.9c0-0.9,0.1-2.6,1.2-3.8c0.7-0.8,2.2-1.5,4-1.3
	c-0.4,0.1-1.1,0.6-1.4,1c0.9-0.2,1.8,0.1,2.5,0.4c0,0-1.5,0.3-2.1,0.8c0.6,0,1.4,0.2,1.8,0.4c-0.1,0.1-1.2,0.4-1.5,0.7
	C118.5,26.9,119.1,27.3,119.2,27.6z M131.7,19.9c0.2-2.2-0.2-4.4-1.5-6.4c-2.2-3.5-6.3-5.1-10.2-4.4c0,0-0.1,0-0.1,0
	c-0.2,0-0.4,0.1-0.6,0.1c-0.1,0-0.2,0.1-0.4,0.1c0,0-0.1,0-0.1,0l0,0c-3.2,1-5.9,3.7-6.6,7.2c0,0.2-0.1,0.4-0.1,0.5l0,0l0,0
	c-0.2,1-0.2,2.1,0,3.1c0,0,0,0,0,0c0,0.2,0.1,0.3,0.1,0.5c0.2,0.9,0.5,1.7,0.9,2.5c1.1-1.2,2.7-1.9,4.7-1.8c0,0,0,0,0,0
	c-1.5-2.3-0.8-5.3,1.5-6.8c0.4-0.3,0.8-0.4,1.2-0.6c0.7-0.2,1.5-0.2,2.3-0.1c2.7,0.6,4.3,3.2,3.8,5.9c-0.1,0.6-0.3,1.1-0.6,1.5
	c-0.4,0.6-1.1,1.2-1.9,1.5c-0.9,0.4-2.4,0.6-4.7-0.1c-3-0.8-5,0.4-6.1,1.9c-1.6,2.3-0.6,5.2-0.6,5.2c3.2-3.9,8.4,0.5,14.1-2.7
	c2.3-1.3,3.9-3.4,4.5-5.6C131.6,20.9,131.7,20.1,131.7,19.9z"/>
<path id="f_3_" class="st0" d="M111.2,5.7V1.1c-5.5-0.6-8.6,3.1-8.6,8.1h-2.3v4.4h2.3v14.8h5V13.5h3.5V9.2h-3.5
	C107.5,6.5,108.9,5.5,111.2,5.7"/>
<path id="r_3_" class="st1" d="M92.4,11V9.1h-4.7v19.3h5v-9.5c0-1.5,0.2-3.1,1.2-4.2c1.1-1.2,2.8-1.4,4.8-1.2V8.7
	C96.3,8.3,94,9,92.4,11"/>
<path id="e_3_" class="st1" d="M70.3,16.6c0.7-2.2,2.5-3.7,4.8-3.7c2.4,0,4.2,1.4,4.8,3.7H70.3z M75.1,8.6c-5.4,0-9.9,4.6-9.9,10.1
	c0,5.6,4.5,10.1,9.9,10.1c4.8,0,8.2-2.7,9.4-6.6h-5.3c-0.8,1.5-2.4,2.2-4.1,2.2c-2.3,0-4.2-1.5-4.8-3.8h14.6
	C85.6,13,80.8,8.6,75.1,8.6z"/>
<polygon id="v_3_" class="st1" points="55.7,23.4 50.9,9.1 45.7,9.1 53,28.3 58.4,28.3 65.7,9.1 60.5,9.1 "/>
<path id="o_3_" class="st1" d="M36.4,23.8c-2.8,0-5.1-2.3-5.1-5.1c0-2.8,2.3-5.1,5.1-5.1s5.1,2.3,5.1,5.1
	C41.5,21.5,39.2,23.8,36.4,23.8z M36.4,8.8c-5.5,0-9.9,4.4-9.9,9.9c0,5.4,4.4,9.8,9.9,9.8s9.9-4.4,9.9-9.8
	C46.3,13.2,41.9,8.8,36.4,8.8z"/>
<path id="c_3_" class="st1" d="M20.1,10.3h5.4c-1.6-5.3-6-8.6-11.9-8.6C6.5,1.7,1,7.7,1,15.3s5.5,13.5,12.6,13.5
	c5.8,0,10.2-3.4,11.8-8.7h-5.3c-1.2,2.4-3.5,4.2-6.5,4.2c-4.3,0-7.7-4.1-7.7-9c0-4.9,3.4-9,7.7-9C16.6,6.2,19,8,20.1,10.3z"/>
</svg>
